<svg xmlns="http://www.w3.org/2000/svg" version="1.1" xmlns:xlink="http://www.w3.org/1999/xlink" xmlns:svgjs="http://svgjs.dev/svgjs" width="1500" height="1500" viewBox="0 0 1500 1500"><g transform="matrix(1,0,0,1,-0.323615160350073,-0.3236151603499593)"><svg viewBox="0 0 343 343" data-background-color="#ffffff" preserveAspectRatio="xMidYMid meet" height="1500" width="1500" xmlns="http://www.w3.org/2000/svg" xmlns:xlink="http://www.w3.org/1999/xlink"><g id="tight-bounds" transform="matrix(1,0,0,1,0.0740000000000407,0.07400000000001228)"><svg viewBox="0 0 342.85155851775386 342.85155851775386" height="342.85155851775386" width="342.85155851775386"><g><svg></svg></g><g><svg viewBox="0 0 342.85155851775386 342.85155851775386" height="342.85155851775386" width="342.85155851775386"><g><path d="M0 171.426c0-94.676 76.75-171.426 171.426-171.426 94.676 0 171.426 76.75 171.426 171.426 0 94.676-76.75 171.426-171.426 171.426-94.676 0-171.426-76.75-171.426-171.426zM171.426 337.292c91.605 0 165.866-74.261 165.866-165.866 0-91.605-74.261-165.866-165.866-165.867-91.605 0-165.866 74.261-165.867 165.867 0 91.605 74.261 165.866 165.867 165.866z" data-fill-palette-color="tertiary" fill="#4a596d" stroke="transparent"></path><ellipse rx="164.56874808852186" ry="164.56874808852186" cx="171.42577925887693" cy="171.42577925887693" fill="#4a596d" stroke="transparent" stroke-width="0" fill-opacity="1" data-fill-palette-color="tertiary"></ellipse></g><g transform="matrix(1,0,0,1,64.84655864529837,90.72780874336516)"><svg viewBox="0 0 213.1584412271571 161.39594103102354" height="161.39594103102354" width="213.1584412271571"><g><svg viewBox="0 0 213.1584412271571 161.39594103102354" height="161.39594103102354" width="213.1584412271571"><g><svg viewBox="0 0 213.1584412271571 161.39594103102354" height="161.39594103102354" width="213.1584412271571"><g transform="matrix(1,0,0,1,0,99.74916644120127)"><svg viewBox="0 0 213.1584412271571 61.64677458982227" height="61.64677458982227" width="213.1584412271571"><g id="textblocktransform"><svg viewBox="0 0 213.1584412271571 61.64677458982227" height="61.64677458982227" width="213.1584412271571" id="textblock"><g><svg viewBox="0 0 213.1584412271571 61.64677458982227" height="61.64677458982227" width="213.1584412271571"><g transform="matrix(1,0,0,1,0,0)"><svg width="213.1584412271571" viewBox="0.75 -45.15 157.48 45.55" height="61.64677458982227" data-palette-color="#ffffff"><path d="M9.1 0L0.75 0 4.9-42.95 19.45-42.95 23.55 0 15.4 0 14.8-6.95 9.6-6.95 9.1 0ZM11.85-35.65L10.25-13.8 14.15-13.8 12.25-35.65 11.85-35.65ZM36.05 0.4Q25.2 0.4 25.2-10.6L25.2-10.6 25.25-13.5 34-13.5 34.05-9.2Q34.05-7.9 34.55-7.23 35.05-6.55 36.2-6.55L36.2-6.55Q37.95-6.55 37.95-9.4L37.95-9.4Q37.95-11.5 37.12-12.7 36.3-13.9 34.5-15.25L34.5-15.25 29.85-18.85Q27.45-20.7 26.4-22.68 25.35-24.65 25.35-28.25L25.35-28.25Q25.35-31.05 26.82-33.02 28.3-35 30.75-36 33.2-37 36.2-37L36.2-37Q46.85-37 46.85-26.4L46.85-26.4 46.85-25.7 37.8-25.7 37.8-27.1Q37.8-28.4 37.37-29.33 36.95-30.25 35.95-30.25L35.95-30.25Q35.05-30.25 34.57-29.73 34.1-29.2 34.1-28.3L34.1-28.3Q34.1-26.3 35.65-25.2L35.65-25.2 41.05-21.25Q43.95-19.1 45.5-16.57 47.05-14.05 47.05-10.2L47.05-10.2Q47.05-5.1 44.15-2.35 41.25 0.4 36.05 0.4L36.05 0.4ZM56.4 0.4Q52.15 0.4 50.57-2.43 49-5.25 49-10.5L49-10.5Q49-14.8 50.12-17.1 51.25-19.4 53.25-20.48 55.25-21.55 59.35-22.85L59.35-22.85 61.75-23.65 61.75-23.75 61.75-27.4Q61.75-28.85 61.17-29.63 60.6-30.4 59.8-30.4L59.8-30.4Q59.1-30.4 58.57-29.75 58.05-29.1 58.05-28L58.05-28 58.05-25.8 49.55-25.8 49.55-27Q49.55-32.4 52.07-34.7 54.6-37 60.3-37L60.3-37Q64.84-37 67.7-34.63 70.55-32.25 70.55-27.9L70.55-27.9 70.55 0 61.85 0 61.85-4.35Q61.2-2.1 59.77-0.85 58.35 0.4 56.4 0.4L56.4 0.4ZM59.85-6.4Q60.85-6.4 61.27-7.23 61.7-8.05 61.7-9.25L61.7-9.25 61.7-19.45Q59.75-18.7 58.82-17.55 57.9-16.4 57.9-14.35L57.9-14.35 57.9-9.65Q57.9-6.4 59.85-6.4L59.85-6.4ZM74.69 0L74.69-28.35 73.14-28.35 73.19-35 74.69-35 74.69-37.5Q74.69-43.4 80.59-43.4L80.59-43.4Q83.39-43.4 85.09-42.7L85.09-42.7 85.09-37.3Q84.59-37.45 84.29-37.45L84.29-37.45Q83.59-37.45 83.39-36.95 83.19-36.45 83.19-35.45L83.19-35.45 83.19-35 85.09-35 85.09-28.25 83.39-28.25 83.39 0 74.69 0ZM96.59-39.05L87.84-39.05 87.84-45.15 96.59-45.15 96.59-39.05ZM96.59 0L87.84 0 87.84-36.6 96.59-36.6 96.59 0ZM110.29 0.4Q104.64 0.4 102.19-2.7 99.74-5.8 99.74-11.95L99.74-11.95 99.74-26.65Q99.74-31.7 102.64-34.35 105.54-37 110.74-37L110.74-37Q121.29-37 121.29-26.65L121.29-26.65 121.29-24Q121.29-20 121.19-17.5L121.19-17.5 108.49-17.5 108.49-10.4Q108.49-8.5 108.89-7.43 109.29-6.35 110.59-6.35L110.59-6.35Q111.59-6.35 112.01-6.95 112.44-7.55 112.51-8.33 112.59-9.1 112.59-10.6L112.59-10.6 112.59-14.15 121.29-14.15 121.29-12.05Q121.29-5.65 118.81-2.63 116.34 0.4 110.29 0.4L110.29 0.4ZM108.44-21.85L112.59-21.85 112.59-26.55Q112.59-30.5 110.64-30.5L110.64-30.5Q108.44-30.5 108.44-26.55L108.44-26.55 108.44-21.85ZM133.34 0L124.44 0 124.44-43.2 133.34-43.2 133.34 0ZM144.03 0.4Q140.83 0.4 139.21-1.13 137.58-2.65 137.06-5.18 136.53-7.7 136.53-11.65L136.53-11.65 136.63-28.15Q136.63-32.05 138.61-34.52 140.58-37 144.18-37L144.18-37Q147.73-37 149.48-34.65L149.48-34.65 149.48-43.2 158.23-43.2 158.23 0 149.48 0 149.48-3.9Q148.73-1.75 147.46-0.68 146.18 0.4 144.03 0.4L144.03 0.4ZM147.38-6.45Q148.68-6.45 149.08-7.73 149.48-9 149.48-11.15L149.48-11.15 149.48-12.7 149.48-26.45Q149.48-28.05 149.03-29.15 148.58-30.25 147.43-30.25L147.43-30.25Q146.13-30.25 145.71-29.23 145.28-28.2 145.28-26.45L145.28-26.45 145.28-11.05Q145.28-6.45 147.38-6.45L147.38-6.45Z" opacity="1" transform="matrix(1,0,0,1,0,0)" fill="#ffffff" class="wordmark-text-0" data-fill-palette-color="quaternary" id="text-0"></path></svg></g></svg></g></svg></g></svg></g><g transform="matrix(1,0,0,1,73.19166072153939,0)"><svg viewBox="0 0 66.77511978407831 85.19584248313438" height="85.19584248313438" width="66.77511978407831"><g><svg xmlns="http://www.w3.org/2000/svg" xmlns:xlink="http://www.w3.org/1999/xlink" xml:space="preserve" version="1.1" style="shape-rendering:geometricPrecision;text-rendering:geometricPrecision;image-rendering:optimizeQuality;" viewBox="297 241 406 518" x="0" y="0" fill-rule="evenodd" clip-rule="evenodd" height="85.19584248313438" width="66.77511978407831" class="icon-icon-0" data-fill-palette-color="quaternary" id="icon-0"><g fill="#ffffff" data-fill-palette-color="quaternary"><path class="" d="M478 479C517 479 552 495 577 520 603 546 618 581 618 619 618 658 603 693 577 718 552 744 517 759 478 759 440 759 405 744 379 718 354 693 338 658 338 619 338 581 354 546 379 520 405 495 440 479 478 479M518 580C508 570 494 564 478 564 463 564 449 570 439 580S423 604 423 619C423 635 429 648 439 659 449 669 463 675 478 675 494 675 508 669 518 659 528 648 534 635 534 619 534 604 528 590 518 580" fill="#ffffff" fill-rule="nonzero" data-fill-palette-color="quaternary"></path><path class="" d="M407 241C438 241 465 253 485 273S517 320 517 351C517 381 505 409 485 428 465 448 438 461 407 461 377 461 349 448 330 428 310 409 297 381 297 351 297 320 310 293 330 273 349 253 377 241 407 241M438 320C430 312 419 307 407 307S384 312 377 320C369 328 364 339 364 351S369 374 377 382C384 389 395 394 407 394S430 389 438 382C446 374 451 363 451 351S446 328 438 320" fill="#ffffff" fill-rule="nonzero" data-fill-palette-color="quaternary"></path><path class="" d="M638 340C656 340 672 347 684 359 695 370 703 387 703 405S695 439 684 451C672 462 656 470 638 470S603 462 592 451C580 439 573 423 573 405S580 370 592 359C603 347 620 340 638 340M656 386C651 382 645 379 638 379S624 382 619 386C615 391 612 398 612 405S615 418 619 423C624 427 631 430 638 430S651 427 656 423C661 418 663 412 663 405S661 391 656 386" fill="#ffffff" fill-rule="nonzero" data-fill-palette-color="quaternary"></path></g></svg></g></svg></g><g></g></svg></g></svg></g></svg></g></svg></g><defs></defs></svg><rect width="342.85155851775386" height="342.85155851775386" fill="none" stroke="none" visibility="hidden"></rect></g></svg></g></svg>